# xmcd
#
# Track frame offsets: 
#        150
#        19252
#        38672
#        59317
#        78692
#        102295
#        121787
#        141457
#        162670
#        182240
#        204475
#        209260
#        231142
#        251100
#        270957
#        291165
#        310967
#
# Disc length: 4415 seconds
#
# Revision: 2
# Processed by: cddbd v1.5.2PL0 Copyright (c) Steve Scherf et al.
# Submitted via: ExactAudioCopy v1.3
#
DISCID=fb113d11
DTITLE=Ali - Crucial (Japan)
DYEAR=1998
DGENRE=R&B
TTITLE0=Love Letters
TTITLE1=So In Love
TTITLE2=Whatever You Want
TTITLE3=In And Out Of My Life
TTITLE4=Tomorrow
TTITLE5=I Wish You Better
TTITLE6=Sure
TTITLE7=Feelin' You
TTITLE8=Maybe Today
TTITLE9=Crucial
TTITLE10=Since Loving You Is Crucial (Reprise)
TTITLE11=If Only Takes A Minute (feat. Wayne Hector)
TTITLE12=Bitter Honey
TTITLE13=Crazy Don't
TTITLE14=So In Love (Live Remix)
TTITLE15=Love Letters (Live At Marcus Studios)
TTITLE16=Lately (Live At Marcus Studios)
EXTD=
EXTT0=
EXTT1=
EXTT2=
EXTT3=
EXTT4=
EXTT5=
EXTT6=
EXTT7=
EXTT8=
EXTT9=
EXTT10=
EXTT11=
EXTT12=
EXTT13=
EXTT14=
EXTT15=
EXTT16=
PLAYORDER=
